<svg width="1140" height="1026" viewBox="0 0 1140 1026" fill="none" xmlns="http://www.w3.org/2000/svg">
<path d="M97.9433 165.545L268.32 148.982L356.226 31.9265L678.706 0.575797L787.512 98.5071L957.889 81.9435C1017.01 76.1958 1070.08 119.865 1075.83 178.986L1138.53 823.946C1144.28 883.067 1100.61 936.142 1041.49 941.889L181.545 1025.49C122.424 1031.24 69.3493 987.569 63.6017 928.448L0.90035 283.489C-4.84727 224.367 38.822 171.293 97.9433 165.545ZM171.095 917.998L1031.04 834.396L968.339 189.437L750.666 210.598L641.859 112.667L413.973 134.822L326.067 251.877L108.394 273.038L171.095 917.998ZM543.592 284.984C691.932 270.563 824.029 379.251 838.45 527.592C852.872 675.932 744.183 808.029 595.843 822.45C447.502 836.872 315.405 728.183 300.984 579.843C286.563 431.502 395.251 299.406 543.592 284.984ZM585.392 714.957C674.074 706.336 739.578 626.724 730.957 538.042C722.336 449.36 642.724 383.856 554.042 392.477C465.36 401.099 399.856 480.711 408.477 569.393C417.099 658.074 496.711 723.579 585.392 714.957Z" fill="black" fill-opacity="0.04"/>
</svg>
