<svg width="147" height="113" viewBox="0 0 147 113" fill="none" xmlns="http://www.w3.org/2000/svg">
<g opacity="0.1">
<line x1="78" x2="78" y2="23" stroke="#191F24" stroke-opacity="0.6" stroke-width="4"/>
<line x1="78" y1="30" x2="78" y2="53" stroke="#191F24" stroke-opacity="0.6" stroke-width="4"/>
<line x1="78" y1="60" x2="78" y2="83" stroke="#191F24" stroke-opacity="0.6" stroke-width="4"/>
<line x1="78" y1="90" x2="78" y2="113" stroke="#191F24" stroke-opacity="0.6" stroke-width="4"/>
<line x1="20" x2="20" y2="23" stroke="#191F24" stroke-opacity="0.2" stroke-width="4"/>
<line x1="20" y1="30" x2="20" y2="53" stroke="#191F24" stroke-opacity="0.2" stroke-width="4"/>
<line x1="20" y1="60" x2="20" y2="83" stroke="#191F24" stroke-opacity="0.2" stroke-width="4"/>
<line x1="20" y1="90" x2="20" y2="113" stroke="#191F24" stroke-opacity="0.2" stroke-width="4"/>
<line x1="107" x2="107" y2="23" stroke="#191F24" stroke-opacity="0.8" stroke-width="4"/>
<line x1="107" y1="30" x2="107" y2="53" stroke="#191F24" stroke-opacity="0.8" stroke-width="4"/>
<line x1="107" y1="60" x2="107" y2="83" stroke="#191F24" stroke-opacity="0.8" stroke-width="4"/>
<line x1="107" y1="90" x2="107" y2="113" stroke="#191F24" stroke-opacity="0.8" stroke-width="4"/>
<line x1="49" x2="49" y2="23" stroke="#191F24" stroke-opacity="0.4" stroke-width="4"/>
<line x1="49" y1="30" x2="49" y2="53" stroke="#191F24" stroke-opacity="0.4" stroke-width="4"/>
<line x1="49" y1="60" x2="49" y2="83" stroke="#191F24" stroke-opacity="0.4" stroke-width="4"/>
<line x1="49" y1="90" x2="49" y2="113" stroke="#191F24" stroke-opacity="0.4" stroke-width="4"/>
<line x1="136" x2="136" y2="23" stroke="#191F24" stroke-width="4"/>
<line x1="136" y1="30" x2="136" y2="53" stroke="#191F24" stroke-width="4"/>
<line x1="136" y1="60" x2="136" y2="83" stroke="#191F24" stroke-width="4"/>
<line x1="136" y1="90" x2="136" y2="113" stroke="#191F24" stroke-width="4"/>
<line x1="-20" y1="11" x2="2" y2="11" stroke="#191F24" stroke-opacity="0.05" stroke-width="4"/>
<line x1="-20" y1="41" x2="2" y2="41" stroke="#191F24" stroke-opacity="0.05" stroke-width="4"/>
<line x1="-20" y1="71" x2="2" y2="71" stroke="#191F24" stroke-opacity="0.05" stroke-width="4"/>
<line x1="-20" y1="101" x2="2" y2="101" stroke="#191F24" stroke-opacity="0.05" stroke-width="4"/>
<line x1="67" y1="11" x2="89" y2="11" stroke="#191F24" stroke-opacity="0.6" stroke-width="4"/>
<line x1="67" y1="41" x2="89" y2="41" stroke="#191F24" stroke-opacity="0.6" stroke-width="4"/>
<line x1="67" y1="71" x2="89" y2="71" stroke="#191F24" stroke-opacity="0.6" stroke-width="4"/>
<line x1="67" y1="101" x2="89" y2="101" stroke="#191F24" stroke-opacity="0.6" stroke-width="4"/>
<line x1="9" y1="11" x2="31" y2="11" stroke="#191F24" stroke-opacity="0.2" stroke-width="4"/>
<line x1="9" y1="41" x2="31" y2="41" stroke="#191F24" stroke-opacity="0.2" stroke-width="4"/>
<line x1="9" y1="71" x2="31" y2="71" stroke="#191F24" stroke-opacity="0.2" stroke-width="4"/>
<line x1="9" y1="101" x2="31" y2="101" stroke="#191F24" stroke-opacity="0.2" stroke-width="4"/>
<line x1="96" y1="11" x2="118" y2="11" stroke="#191F24" stroke-opacity="0.8" stroke-width="4"/>
<line x1="96" y1="41" x2="118" y2="41" stroke="#191F24" stroke-opacity="0.8" stroke-width="4"/>
<line x1="96" y1="71" x2="118" y2="71" stroke="#191F24" stroke-opacity="0.8" stroke-width="4"/>
<line x1="96" y1="101" x2="118" y2="101" stroke="#191F24" stroke-opacity="0.8" stroke-width="4"/>
<line x1="38" y1="11" x2="60" y2="11" stroke="#191F24" stroke-opacity="0.4" stroke-width="4"/>
<line x1="38" y1="41" x2="60" y2="41" stroke="#191F24" stroke-opacity="0.4" stroke-width="4"/>
<line x1="38" y1="71" x2="60" y2="71" stroke="#191F24" stroke-opacity="0.4" stroke-width="4"/>
<line x1="38" y1="101" x2="60" y2="101" stroke="#191F24" stroke-opacity="0.4" stroke-width="4"/>
<line x1="125" y1="11" x2="147" y2="11" stroke="#191F24" stroke-width="4"/>
<line x1="125" y1="41" x2="147" y2="41" stroke="#191F24" stroke-width="4"/>
<line x1="125" y1="71" x2="147" y2="71" stroke="#191F24" stroke-width="4"/>
<line x1="125" y1="101" x2="147" y2="101" stroke="#191F24" stroke-width="4"/>
</g>
</svg>
